<svg width="128" height="32" viewBox="0 0 128 32" fill="none" xmlns="http://www.w3.org/2000/svg">
<path d="M40.9785 24.1422L47.2338 7.8334H50.6731L56.9054 24.1422H53.7893L52.7044 21.1204H45.1795L44.0716 24.1422H40.9785ZM46.1028 18.5137H51.758L48.9419 10.7399L46.1028 18.5137Z" fill="#1D2939"/>
<path d="M58.3652 24.1422V7.7189H61.1812V24.1422H58.3652Z" fill="#1D2939"/>
<path d="M64.1067 24.1279L70.3075 7.71892H73.4892L79.6669 24.1279H77.0193L75.8117 20.8322H67.9619L66.7542 24.1279H64.1067ZM68.7747 18.6273H74.9988L71.8868 10.0631L68.7747 18.6273Z" fill="#475467"/>
<path d="M86.0905 29.6749C85.2235 29.6749 84.4184 29.5357 83.6752 29.2571C82.932 28.9941 82.2973 28.5686 81.7708 27.9806C81.2599 27.4081 80.9115 26.6732 80.7257 25.7757H83.2107C83.3191 26.1935 83.5281 26.5262 83.8378 26.7737C84.1474 27.0368 84.5113 27.2225 84.9293 27.3308C85.3474 27.4391 85.7654 27.4932 86.1834 27.4932C86.973 27.4932 87.6078 27.3308 88.0878 27.0058C88.5678 26.6809 88.9084 26.2399 89.1097 25.6829C89.3264 25.1414 89.4348 24.5224 89.4348 23.8262V22.4104C89.1716 22.8591 88.8232 23.2227 88.3897 23.5012C87.9562 23.7797 87.4917 23.9809 86.9963 24.1047C86.5163 24.213 86.0209 24.2671 85.5099 24.2671C84.2558 24.2671 83.234 23.9886 82.4443 23.4316C81.6547 22.8746 81.0664 22.1319 80.6793 21.2035C80.3077 20.2597 80.1219 19.2153 80.1219 18.0703C80.1219 16.8943 80.3155 15.8267 80.7025 14.8674C81.1051 13.9081 81.7166 13.1499 82.5372 12.5929C83.3578 12.0204 84.3952 11.7341 85.6493 11.7341C86.377 11.7341 87.0814 11.8656 87.7627 12.1287C88.4439 12.3762 89.009 12.7785 89.458 13.3356L89.5974 11.8966H91.8501V23.5477C91.8501 24.801 91.6488 25.8841 91.2463 26.797C90.8437 27.7253 90.2167 28.4371 89.3651 28.9322C88.5136 29.4273 87.422 29.6749 86.0905 29.6749ZM85.9512 22.1319C86.7253 22.1319 87.3679 21.9462 87.8788 21.5749C88.4052 21.188 88.8 20.6774 89.0632 20.0431C89.3264 19.4087 89.458 18.7124 89.458 17.9542C89.458 17.1806 89.3264 16.492 89.0632 15.8886C88.8 15.2697 88.4129 14.7823 87.902 14.4264C87.3911 14.0705 86.7331 13.8926 85.928 13.8926C85.0919 13.8926 84.4261 14.086 83.9307 14.4728C83.4352 14.8442 83.0714 15.347 82.8391 15.9814C82.6224 16.6003 82.514 17.2889 82.514 18.0471C82.514 18.8207 82.6301 19.517 82.8624 20.1359C83.0946 20.7548 83.4585 21.2422 83.9539 21.5981C84.4648 21.9539 85.1306 22.1319 85.9512 22.1319Z" fill="#475467"/>
<path d="M99.4753 24.2671C98.1902 24.2671 97.1141 24.0041 96.2471 23.478C95.3801 22.952 94.7221 22.2247 94.2731 21.2964C93.8395 20.3525 93.6228 19.2694 93.6228 18.0471C93.6228 16.8092 93.8473 15.7184 94.2963 14.7745C94.7608 13.8307 95.4265 13.088 96.2936 12.5465C97.1761 12.0049 98.2366 11.7341 99.4753 11.7341C100.42 11.7341 101.24 11.9121 101.937 12.2679C102.634 12.6083 103.207 13.0725 103.656 13.6605C104.12 14.2485 104.461 14.9061 104.677 15.6333C104.894 16.345 104.987 17.0877 104.956 17.8614C104.956 18.0316 104.948 18.194 104.933 18.3488C104.917 18.5035 104.902 18.666 104.886 18.8362H96.0381C96.0845 19.4551 96.2394 20.0198 96.5026 20.5304C96.7813 21.0411 97.1683 21.4511 97.6638 21.7605C98.1592 22.0545 98.7708 22.2015 99.4985 22.2015C99.901 22.2015 100.288 22.1551 100.66 22.0623C101.047 21.9539 101.387 21.7915 101.682 21.5749C101.991 21.3428 102.208 21.0488 102.332 20.6929H104.747C104.546 21.513 104.182 22.1938 103.656 22.7353C103.145 23.2614 102.518 23.6482 101.774 23.8958C101.047 24.1434 100.28 24.2671 99.4753 24.2671ZM96.0845 16.933H102.587C102.572 16.3296 102.432 15.7958 102.169 15.3316C101.906 14.8519 101.542 14.4806 101.078 14.2175C100.613 13.939 100.056 13.7998 99.4056 13.7998C98.6934 13.7998 98.0973 13.9467 97.6173 14.2407C97.1529 14.5347 96.789 14.9215 96.5258 15.4012C96.2781 15.8654 96.131 16.376 96.0845 16.933Z" fill="#475467"/>
<path d="M106.726 24.1279V11.8966H109.002L109.118 13.6141C109.428 13.1654 109.8 12.8095 110.233 12.5465C110.667 12.2679 111.131 12.0668 111.627 11.943C112.122 11.8038 112.602 11.7341 113.066 11.7341C114.243 11.7341 115.164 11.9894 115.83 12.5C116.511 12.9952 116.991 13.6682 117.27 14.5192C117.564 15.3548 117.711 16.3064 117.711 17.374V24.1279H115.296V17.8614C115.296 17.3662 115.265 16.8789 115.203 16.3992C115.141 15.9195 115.01 15.494 114.808 15.1227C114.622 14.7359 114.352 14.4341 113.995 14.2175C113.639 13.9854 113.159 13.8694 112.556 13.8694C111.812 13.8694 111.185 14.0705 110.674 14.4728C110.163 14.8751 109.776 15.4167 109.513 16.0975C109.25 16.7783 109.118 17.5442 109.118 18.3952V24.1279H106.726Z" fill="#475467"/>
<path d="M125.02 24.1279C124.06 24.1279 123.278 23.9964 122.674 23.7333C122.071 23.4548 121.622 23.0216 121.327 22.4336C121.049 21.8456 120.909 21.0797 120.909 20.1359V14.0318H118.982V11.8966H120.909V8.36878H123.301V11.8966H126.39V14.0318H123.301V19.8342C123.301 20.5614 123.433 21.1107 123.696 21.482C123.959 21.8379 124.509 22.0158 125.345 22.0158H126.297V24.1279H125.02Z" fill="#475467"/>
<g clip-path="url(#clip0_13107_30)">
<g filter="url(#filter0_i_13107_30)">
<path d="M27.6356 10.8375L27.3066 11.5917C27.0659 12.1439 26.3017 12.1439 26.0609 11.5917L25.732 10.8375C25.1456 9.49262 24.0895 8.42188 22.7716 7.8361L21.758 7.38562C21.2101 7.14204 21.2101 6.34508 21.758 6.10149L22.7149 5.67618C24.0667 5.07534 25.1418 3.96497 25.718 2.57444L26.0558 1.75937C26.2913 1.19131 27.0763 1.19131 27.3117 1.75937L27.6495 2.57444C28.2259 3.96497 29.301 5.07534 30.6528 5.67618L31.6095 6.10149C32.1576 6.34508 32.1576 7.14204 31.6095 7.38562L30.5961 7.8361C29.2781 8.42188 28.222 9.49262 27.6356 10.8375ZM26.6838 14.6667C27.5771 14.6667 28.4361 14.5204 29.2384 14.2507C29.3135 14.8232 29.3522 15.4071 29.3522 16C29.3522 23.3637 23.3788 29.3333 16.0103 29.3333C13.7389 29.3333 11.6 28.7661 9.72787 27.7656L2.66846 29.3333L4.23721 22.2784C3.23607 20.4075 2.66846 18.27 2.66846 16C2.66846 8.6362 8.64181 2.66666 16.0103 2.66666C17.2186 2.66666 18.3893 2.82718 19.5024 3.12804C18.975 4.19489 18.6787 5.3962 18.6787 6.66666C18.6787 11.0849 22.2627 14.6667 26.6838 14.6667ZM9.33939 16C9.33939 19.6819 12.3261 22.6667 16.0103 22.6667C19.6946 22.6667 22.6813 19.6819 22.6813 16H20.0129C20.0129 18.2092 18.2209 20 16.0103 20C13.7997 20 12.0078 18.2092 12.0078 16H9.33939Z" fill="url(#paint0_radial_13107_30)"/>
</g>
</g>
<defs>
<filter id="filter0_i_13107_30" x="2.66846" y="1.33333" width="30.8759" height="29.5238" filterUnits="userSpaceOnUse" color-interpolation-filters="sRGB">
<feFlood flood-opacity="0" result="BackgroundImageFix"/>
<feBlend mode="normal" in="SourceGraphic" in2="BackgroundImageFix" result="shape"/>
<feColorMatrix in="SourceAlpha" type="matrix" values="0 0 0 0 0 0 0 0 0 0 0 0 0 0 0 0 0 0 127 0" result="hardAlpha"/>
<feOffset dx="1.52381" dy="1.52381"/>
<feGaussianBlur stdDeviation="1.14286"/>
<feComposite in2="hardAlpha" operator="arithmetic" k2="-1" k3="1"/>
<feColorMatrix type="matrix" values="0 0 0 0 1 0 0 0 0 1 0 0 0 0 1 0 0 0 0.5 0"/>
<feBlend mode="normal" in2="shape" result="effect1_innerShadow_13107_30"/>
</filter>
<radialGradient id="paint0_radial_13107_30" cx="0" cy="0" r="1" gradientUnits="userSpaceOnUse" gradientTransform="translate(18.6103 24.3807) rotate(-58.974) scale(27.9815 28.6313)">
<stop stop-color="#7F68FF"/>
<stop offset="1" stop-color="#BEB2FF"/>
</radialGradient>
<clipPath id="clip0_13107_30">
<rect width="32.0205" height="32" fill="white"/>
</clipPath>
</defs>
</svg>
