<svg class="w-8 h-8" width="85" height="86" viewBox="0 0 85 86" fill="none" xmlns="http://www.w3.org/2000/svg"><path d="M42.8823 18.1479C46.4582 18.5289 52.6237 21.4188 58.6069 27.8892C64.7823 34.5673 67.4282 41.4733 67.4282 45.4985V68.0718H44.855C40.4304 68.0717 33.8229 65.58 27.6821 60.0503C21.7347 54.6947 18.6554 48.6834 18.106 44.3286L18.0601 43.9126C17.5788 38.6253 19.9136 32.2407 25.4038 26.6646C30.766 21.2184 37.4322 18.3263 42.8823 18.1479Z" fill="#011E2B" stroke="#011E2B" stroke-width="35"></path><path d="M40.0732 2.92822C58.5765 2.92822 73.5769 17.928 73.5771 36.4312V74.0054H36.0029C17.4997 74.0051 2.5 59.0047 2.5 40.5015C2.50004 19.7504 19.3221 2.92826 40.0732 2.92822Z" fill="white" stroke="#011E2B" stroke-width="5"></path></svg>