<svg xmlns="http://www.w3.org/2000/svg" width="36" height="32" viewBox="0 0 36 32" fill="none"><g filter="url(#filter0_d_9279_160)"><g filter="url(#filter1_i_9279_160)"><path fill-rule="evenodd" clip-rule="evenodd" d="M8 10.1784C8 8.17331 9.62546 6.54785 11.6306 6.54785H24.3694C26.3745 6.54785 28 8.17332 28 10.1784V17.8217C28 19.8268 26.3745 21.4523 24.3694 21.4523H11.6306C9.62546 21.4523 8 19.8268 8 17.8217V10.1784ZM12.3775 10.6036C12.1178 10.4225 11.7605 10.4862 11.5794 10.7459C11.3983 11.0056 11.462 11.3629 11.7217 11.544L16.7981 15.0839C17.5204 15.5877 18.4803 15.5877 19.2026 15.0839L24.279 11.544C24.5387 11.3629 24.6024 11.0056 24.4213 10.7459C24.2402 10.4862 23.8829 10.4225 23.6232 10.6036L18.5468 14.1435C18.2185 14.3725 17.7822 14.3725 17.4539 14.1435L12.3775 10.6036Z" fill="url(#paint0_radial_9279_160)"></path></g></g><defs><filter id="filter0_d_9279_160" x="-2" y="-4" width="40" height="40" filterUnits="userSpaceOnUse" color-interpolation-filters="sRGB"><feFlood flood-opacity="0" result="BackgroundImageFix"></feFlood><feColorMatrix in="SourceAlpha" type="matrix" values="0 0 0 0 0 0 0 0 0 0 0 0 0 0 0 0 0 0 127 0" result="hardAlpha"></feColorMatrix><feOffset dy="2"></feOffset><feGaussianBlur stdDeviation="4"></feGaussianBlur><feComposite in2="hardAlpha" operator="out"></feComposite><feColorMatrix type="matrix" values="0 0 0 0 0.168627 0 0 0 0 0.811765 0 0 0 0 1 0 0 0 0.25 0"></feColorMatrix><feBlend mode="normal" in2="BackgroundImageFix" result="effect1_dropShadow_9279_160"></feBlend><feBlend mode="normal" in="SourceGraphic" in2="effect1_dropShadow_9279_160" result="shape"></feBlend></filter><filter id="filter1_i_9279_160" x="8" y="6.54785" width="21.5238" height="16.4284" filterUnits="userSpaceOnUse" color-interpolation-filters="sRGB"><feFlood flood-opacity="0" result="BackgroundImageFix"></feFlood><feBlend mode="normal" in="SourceGraphic" in2="BackgroundImageFix" result="shape"></feBlend><feColorMatrix in="SourceAlpha" type="matrix" values="0 0 0 0 0 0 0 0 0 0 0 0 0 0 0 0 0 0 127 0" result="hardAlpha"></feColorMatrix><feOffset dx="1.52381" dy="1.52381"></feOffset><feGaussianBlur stdDeviation="1.14286"></feGaussianBlur><feComposite in2="hardAlpha" operator="arithmetic" k2="-1" k3="1"></feComposite><feColorMatrix type="matrix" values="0 0 0 0 1 0 0 0 0 1 0 0 0 0 1 0 0 0 0.5 0"></feColorMatrix><feBlend mode="normal" in2="shape" result="effect1_innerShadow_9279_160"></feBlend></filter><radialGradient id="paint0_radial_9279_160" cx="0" cy="0" r="1" gradientUnits="userSpaceOnUse" gradientTransform="translate(18.8625 18.816) rotate(-52.4062) scale(16.1086 18.0387)"><stop stop-color="#2BCFFF"></stop><stop offset="1" stop-color="#8EE5FF"></stop></radialGradient></defs></svg>
