<svg xmlns="http://www.w3.org/2000/svg" width="36" height="36" viewBox="0 0 36 36" fill="none"><g filter="url(#filter0_d_9279_144)"><g filter="url(#filter1_i_9279_144)"><path fill-rule="evenodd" clip-rule="evenodd" d="M8.73756 24.3018L8.73873 24.3004L8.74774 24.2896C8.75625 24.2794 8.76968 24.2632 8.78739 24.2413C8.82285 24.1974 8.87538 24.1311 8.94012 24.0452C9.06988 23.8731 9.24715 23.6245 9.43387 23.3229C9.76956 22.7807 10.1139 22.1021 10.2867 21.4087C9.20833 19.876 8.57495 18.0067 8.57495 15.9912C8.57495 10.7859 12.7947 6.56616 18 6.56616C23.2052 6.56616 27.4249 10.7859 27.4249 15.9912C27.4249 21.1964 23.2052 25.4162 18 25.4162C16.8208 25.4162 15.6908 25.1993 14.6487 24.8028C13.5925 25.1989 12.2804 25.3471 11.2517 25.4026C10.681 25.4334 10.1743 25.4366 9.81007 25.4322C9.62767 25.43 9.48031 25.4258 9.37769 25.4222C9.32636 25.4203 9.28618 25.4186 9.25835 25.4174L9.22601 25.4158L9.21706 25.4154L9.21361 25.4152L9.24995 24.7412C9.21308 25.4152 9.21361 25.4152 9.21361 25.4152C8.95701 25.4012 8.73013 25.2426 8.6292 25.0063C8.52835 24.7702 8.57065 24.4968 8.73756 24.3018ZM13.6249 14.8663C13.0035 14.8663 12.4999 15.37 12.4999 15.9913C12.4999 16.6127 13.0035 17.1163 13.6249 17.1163H13.6349C14.2562 17.1163 14.7599 16.6127 14.7599 15.9913C14.7599 15.37 14.2562 14.8663 13.6349 14.8663H13.6249ZM17.9999 14.8663C17.3785 14.8663 16.8749 15.37 16.8749 15.9913C16.8749 16.6127 17.3785 17.1163 17.9999 17.1163H18.0099C18.6312 17.1163 19.1349 16.6127 19.1349 15.9913C19.1349 15.37 18.6312 14.8663 18.0099 14.8663H17.9999ZM22.3749 14.8663C21.7535 14.8663 21.2499 15.37 21.2499 15.9913C21.2499 16.6127 21.7535 17.1163 22.3749 17.1163H22.3849C23.0062 17.1163 23.5099 16.6127 23.5099 15.9913C23.5099 15.37 23.0062 14.8663 22.3849 14.8663H22.3749Z" fill="url(#paint0_radial_9279_144)"></path></g></g><defs><filter id="filter0_d_9279_144" x="-2" y="-2" width="40" height="40" filterUnits="userSpaceOnUse" color-interpolation-filters="sRGB"><feFlood flood-opacity="0" result="BackgroundImageFix"></feFlood><feColorMatrix in="SourceAlpha" type="matrix" values="0 0 0 0 0 0 0 0 0 0 0 0 0 0 0 0 0 0 127 0" result="hardAlpha"></feColorMatrix><feOffset dy="2"></feOffset><feGaussianBlur stdDeviation="4"></feGaussianBlur><feComposite in2="hardAlpha" operator="out"></feComposite><feColorMatrix type="matrix" values="0 0 0 0 0.498039 0 0 0 0 0.407843 0 0 0 0 1 0 0 0 0.25 0"></feColorMatrix><feBlend mode="normal" in2="BackgroundImageFix" result="effect1_dropShadow_9279_144"></feBlend><feBlend mode="normal" in="SourceGraphic" in2="effect1_dropShadow_9279_144" result="shape"></feBlend></filter><filter id="filter1_i_9279_144" x="8.57495" y="6.56616" width="20.3739" height="20.3915" filterUnits="userSpaceOnUse" color-interpolation-filters="sRGB"><feFlood flood-opacity="0" result="BackgroundImageFix"></feFlood><feBlend mode="normal" in="SourceGraphic" in2="BackgroundImageFix" result="shape"></feBlend><feColorMatrix in="SourceAlpha" type="matrix" values="0 0 0 0 0 0 0 0 0 0 0 0 0 0 0 0 0 0 127 0" result="hardAlpha"></feColorMatrix><feOffset dx="1.52381" dy="1.52381"></feOffset><feGaussianBlur stdDeviation="1.14286"></feGaussianBlur><feComposite in2="hardAlpha" operator="arithmetic" k2="-1" k3="1"></feComposite><feColorMatrix type="matrix" values="0 0 0 0 1 0 0 0 0 1 0 0 0 0 1 0 0 0 0.5 0"></feColorMatrix><feBlend mode="normal" in2="shape" result="effect1_innerShadow_9279_144"></feBlend></filter><radialGradient id="paint0_radial_9279_144" cx="0" cy="0" r="1" gradientUnits="userSpaceOnUse" gradientTransform="translate(18.8129 22.0965) rotate(-60.1772) scale(18.6241 18.6153)"><stop stop-color="#7F68FF"></stop><stop offset="1" stop-color="#BEB2FF"></stop></radialGradient></defs></svg>
