<svg xmlns="http://www.w3.org/2000/svg" width="38" height="32" viewBox="0 0 38 32" fill="none"><g filter="url(#filter0_d_9279_153)"><g filter="url(#filter1_i_9279_153)"><path fill-rule="evenodd" clip-rule="evenodd" d="M8.875 10.1305C8.875 8.10037 10.5208 6.45459 12.551 6.45459H25.449C27.4792 6.45459 29.125 8.10037 29.125 10.1305V17.8694C29.125 19.8996 27.4792 21.5454 25.449 21.5454H12.551C10.5208 21.5454 8.875 19.8996 8.875 17.8694V10.1305ZM21.8102 13.429C22.227 13.6955 22.227 14.3043 21.8102 14.5708L18.0934 16.9471C17.6424 17.2355 17.0509 16.9116 17.0509 16.3762V11.6236C17.0509 11.0882 17.6424 10.7643 18.0934 11.0527L21.8102 13.429Z" fill="url(#paint0_radial_9279_153)"></path></g></g><defs><filter id="filter0_d_9279_153" x="-1" y="-4" width="40" height="40" filterUnits="userSpaceOnUse" color-interpolation-filters="sRGB"><feFlood flood-opacity="0" result="BackgroundImageFix"></feFlood><feColorMatrix in="SourceAlpha" type="matrix" values="0 0 0 0 0 0 0 0 0 0 0 0 0 0 0 0 0 0 127 0" result="hardAlpha"></feColorMatrix><feOffset dy="2"></feOffset><feGaussianBlur stdDeviation="4"></feGaussianBlur><feComposite in2="hardAlpha" operator="out"></feComposite><feColorMatrix type="matrix" values="0 0 0 0 1 0 0 0 0 0.67451 0 0 0 0 0.0980392 0 0 0 0.25 0"></feColorMatrix><feBlend mode="normal" in2="BackgroundImageFix" result="effect1_dropShadow_9279_153"></feBlend><feBlend mode="normal" in="SourceGraphic" in2="effect1_dropShadow_9279_153" result="shape"></feBlend></filter><filter id="filter1_i_9279_153" x="8.875" y="6.45459" width="21.7738" height="16.6146" filterUnits="userSpaceOnUse" color-interpolation-filters="sRGB"><feFlood flood-opacity="0" result="BackgroundImageFix"></feFlood><feBlend mode="normal" in="SourceGraphic" in2="BackgroundImageFix" result="shape"></feBlend><feColorMatrix in="SourceAlpha" type="matrix" values="0 0 0 0 0 0 0 0 0 0 0 0 0 0 0 0 0 0 127 0" result="hardAlpha"></feColorMatrix><feOffset dx="1.52381" dy="1.52381"></feOffset><feGaussianBlur stdDeviation="1.14286"></feGaussianBlur><feComposite in2="hardAlpha" operator="arithmetic" k2="-1" k3="1"></feComposite><feColorMatrix type="matrix" values="0 0 0 0 1 0 0 0 0 1 0 0 0 0 1 0 0 0 0.5 0"></feColorMatrix><feBlend mode="normal" in2="shape" result="effect1_innerShadow_9279_153"></feBlend></filter><radialGradient id="paint0_radial_9279_153" cx="0" cy="0" r="1" gradientUnits="userSpaceOnUse" gradientTransform="translate(19.8733 18.8761) rotate(-52.4062) scale(16.3099 18.2642)"><stop stop-color="#FFAC19"></stop><stop offset="1" stop-color="#FFCE78"></stop></radialGradient></defs></svg>
